<?xml version="1.0" standalone="no"?>
<!DOCTYPE svg PUBLIC "-//W3C//DTD SVG 20010904//EN"
 "http://www.w3.org/TR/2001/REC-SVG-20010904/DTD/svg10.dtd">
<svg version="1.0" xmlns="http://www.w3.org/2000/svg"
 width="260.000000pt" height="260.000000pt" viewBox="0 0 260.000000 260.000000"
 preserveAspectRatio="xMidYMid meet">
<metadata>
Created by potrace 1.11, written by Peter Selinger 2001-2013
</metadata>
<g transform="translate(0.000000,260.000000) scale(0.100000,-0.100000)"
fill="#000000" stroke="none">
<path d="M1800 2237 c-25 -4 -58 -10 -75 -11 -16 -2 -37 -6 -45 -9 -8 -3 -33
-11 -55 -18 -42 -12 -187 -78 -195 -88 -3 -3 -25 -19 -50 -36 -46 -30 -227
-208 -268 -263 -41 -55 -132 -205 -128 -210 3 -2 24 5 48 16 24 11 111 53 193
92 83 40 155 73 160 74 6 1 24 10 41 19 17 9 34 13 38 10 3 -4 6 -2 6 4 0 5
24 20 53 33 28 13 142 66 252 118 110 51 205 95 210 96 6 2 62 28 125 58 115
56 115 56 85 68 -80 31 -146 42 -320 54 -16 1 -50 -2 -75 -7z"/>
<path d="M1646 1793 c-70 -14 -178 -54 -256 -94 -78 -39 -260 -168 -260 -184
0 -3 28 -4 63 -1 34 3 103 8 152 11 50 3 110 7 135 10 25 3 88 7 140 10 173
11 224 14 300 20 41 3 107 7 145 10 199 14 240 17 245 22 3 3 -17 25 -45 49
-57 51 -183 116 -270 140 -80 22 -260 26 -349 7z"/>
<path d="M1425 1453 c-33 -7 -72 -15 -86 -18 -14 -2 -45 -11 -68 -20 -24 -8
-47 -12 -52 -9 -5 3 -9 1 -9 -5 0 -7 311 -119 355 -127 12 -2 263 -83 285 -91
8 -4 17 -7 20 -8 11 -2 303 -97 317 -102 40 -16 -42 129 -117 205 -28 28 -71
65 -96 83 -41 28 -146 76 -184 84 -8 2 -34 8 -57 13 -59 13 -236 11 -308 -5z"/>
<path d="M1250 1261 c0 -5 17 -24 38 -42 79 -70 159 -139 237 -205 44 -38 82
-71 85 -74 3 -3 34 -30 70 -60 36 -30 70 -59 76 -65 136 -121 174 -150 175
-138 4 33 -5 104 -20 157 -63 229 -274 392 -543 422 -21 2 -56 6 -78 8 -22 3
-40 1 -40 -3z"/>
<path d="M441 1141 c-20 -13 54 -90 109 -114 49 -22 125 -28 180 -15 19 5 43
10 52 13 23 5 55 24 46 26 -16 3 -28 7 -30 8 -2 1 -18 4 -37 7 -19 2 -39 9
-46 14 -7 5 -14 8 -16 5 -3 -2 -38 5 -79 16 -41 11 -90 22 -109 25 -19 2 -40
9 -46 14 -6 5 -17 5 -24 1z"/>
<path d="M1228 1123 c10 -23 62 -132 206 -426 64 -132 116 -242 116 -247 0 -4
6 -13 14 -19 45 -38 71 250 31 354 -23 62 -64 136 -85 152 -8 7 -12 13 -7 13
20 1 -142 127 -209 163 -60 32 -76 34 -66 10z"/>
<path d="M1165 948 c3 -51 7 -129 9 -173 3 -44 8 -138 11 -210 6 -110 11 -198
14 -239 2 -22 66 65 96 129 49 105 60 188 38 295 -15 72 -77 208 -105 228 -10
7 -18 18 -18 24 0 11 -29 37 -42 38 -4 0 -5 -42 -3 -92z"/>
<path d="M827 1004 c-2 -3 -15 -7 -28 -9 -36 -6 -169 -25 -209 -29 -19 -3 -35
-5 -35 -6 0 -1 -13 -3 -30 -4 -62 -6 -115 -18 -115 -27 0 -6 25 -21 55 -35 55
-26 135 -34 198 -21 38 8 109 44 142 73 16 13 31 24 35 24 15 0 19 28 5 33 -7
3 -15 3 -18 1z"/>
<path d="M1065 938 c-10 -32 -23 -58 -27 -58 -5 0 -7 -4 -3 -9 5 -9 -4 -36
-29 -90 -6 -13 -11 -29 -11 -35 -1 -6 -4 -18 -7 -26 -26 -63 -119 -352 -115
-357 10 -9 131 88 166 133 18 24 45 72 59 106 22 54 26 78 26 163 0 105 -6
145 -28 198 l-13 32 -18 -57z"/>
<path d="M895 960 c4 -6 -89 -52 -101 -50 -3 1 -11 -5 -17 -13 -7 -8 -50 -34
-97 -58 -47 -24 -87 -47 -90 -50 -3 -3 -33 -21 -68 -39 -41 -22 -59 -37 -52
-44 10 -10 139 -12 179 -3 84 21 170 88 229 180 45 68 50 84 27 84 -8 0 -12
-3 -10 -7z"/>
<path d="M948 908 c-23 -29 -53 -64 -65 -78 -13 -14 -23 -28 -23 -33 0 -4 -4
-5 -10 -2 -5 3 -10 1 -10 -5 0 -6 -49 -70 -110 -141 -60 -72 -110 -134 -110
-139 0 -12 99 13 152 39 115 58 204 192 224 338 3 26 8 51 10 55 2 4 0 9 -5
12 -5 3 -29 -18 -53 -46z"/>
</g>
</svg>
